<?xml version="1.0" encoding="UTF-8"?>
<svg id="Calque_1" xmlns="http://www.w3.org/2000/svg" version="1.1" viewBox="0 0 195 223">
  <!-- Generator: Adobe Illustrator 29.8.2, SVG Export Plug-In . SVG Version: 2.1.1 Build 3)  -->
  <defs>
    <style>
      .st0 {
        fill: #fff;
      }
    </style>
  </defs>
  <path class="st0" d="M102.22,49.75c32.53,0,59,26.47,59,59s-26.47,59-59,59-59-26.47-59-59,26.47-59,59-59M102.22,48.75c-33.14,0-60,26.86-60,60s26.86,60,60,60,60-26.86,60-60-26.86-60-60-60h0Z"/>
  <path class="st0" d="M110.81,139.02c0,1.39.16,2.41.47,3.06.31.65.89,1.09,1.73,1.33.84.24,2.17.36,4,.36h9.22c4.75,0,7.56-3.05,8.42-9.14,0-.14.13-.2.4-.18.26.02.4.11.4.25-.43,3.79-.65,6.91-.65,9.36,0,.38-.07.66-.22.83-.14.17-.43.25-.86.25h-33.12c-.1,0-.14-.14-.14-.43s.05-.43.14-.43c1.87,0,3.25-.12,4.14-.36.89-.24,1.49-.71,1.8-1.4.31-.7.47-1.76.47-3.2v-33.34c0-1.44-.16-2.5-.47-3.17-.31-.67-.91-1.14-1.8-1.4-.89-.26-2.27-.4-4.14-.4-.1,0-.14-.14-.14-.43s.05-.43.14-.43l3.53.07c2.02.1,3.6.14,4.75.14,1.3,0,2.95-.05,4.97-.14l3.38-.07c.1,0,.14.14.14.43s-.05.43-.14.43c-1.87,0-3.25.13-4.14.4-.89.26-1.49.75-1.8,1.44-.31.7-.47,1.76-.47,3.2v32.98Z"/>
  <path class="st0" d="M102.16,103.13c.29.02.43.11.43.25-.43,3.02-.65,6.14-.65,9.36,0,.38-.08.66-.25.83s-.47.25-.9.25h-29.74c-.1,0-.14-.14-.14-.43s.05-.43.14-.43c1.87,0,3.25-.12,4.14-.36.89-.24,1.49-.71,1.8-1.4.31-.7.47-1.76.47-3.2v-33.34c0-1.44-.16-2.5-.47-3.17-.31-.67-.91-1.14-1.8-1.4-.89-.26-2.27-.4-4.14-.4-.1,0-.14-.14-.14-.43s.05-.43.14-.43h28.51c.43,0,.65.22.65.65l.14,8.71c0,.14-.13.22-.4.22s-.4-.07-.4-.22c0-2.45-.65-4.39-1.94-5.83-1.3-1.44-3-2.16-5.11-2.16h-4.97c-1.82,0-3.17.12-4.03.36-.86.24-1.45.7-1.76,1.37-.31.67-.47,1.73-.47,3.17v14.62h9.5c2.21,0,3.74-.37,4.61-1.12.86-.74,1.3-2.03,1.3-3.85,0-.1.14-.14.43-.14s.43.05.43.14l-.07,5.69c0,1.39.02,2.42.07,3.1l.07,3.38c0,.1-.14.14-.43.14s-.43-.05-.43-.14c0-2.16-.46-3.67-1.37-4.54-.91-.86-2.52-1.3-4.82-1.3h-9.29v16.63c0,1.39.16,2.41.47,3.06.31.65.89,1.09,1.73,1.33.84.24,2.2.36,4.07.36h6.62c1.92,0,3.56-.84,4.93-2.52,1.37-1.68,2.24-3.89,2.63-6.62,0-.14.14-.2.43-.18Z"/>
  <g>
    <path class="st0" d="M74.74,192.39c.1,0,.14.04.14.08-.14,1.01-.22,2.05-.22,3.12,0,.13-.03.22-.08.28-.06.06-.16.08-.3.08h-9.91s-.05-.05-.05-.14.02-.14.05-.14c.62,0,1.08-.04,1.38-.12.3-.08.5-.24.6-.47.1-.23.16-.59.16-1.07v-11.11c0-.48-.05-.83-.16-1.06-.1-.22-.3-.38-.6-.47-.3-.09-.76-.13-1.38-.13-.03,0-.05-.05-.05-.14s.02-.14.05-.14h9.5c.14,0,.22.07.22.22l.05,2.9s-.04.07-.13.07-.13-.02-.13-.07c0-.82-.22-1.46-.65-1.94-.43-.48-1-.72-1.7-.72h-1.66c-.61,0-1.06.04-1.34.12s-.48.23-.59.46c-.1.22-.16.58-.16,1.06v4.87h3.17c.74,0,1.25-.12,1.54-.37s.43-.68.43-1.28c0-.03.05-.05.14-.05s.14.02.14.05l-.02,1.9c0,.46,0,.81.02,1.03l.02,1.13s-.05.05-.14.05-.14-.02-.14-.05c0-.72-.15-1.22-.46-1.51-.3-.29-.84-.43-1.61-.43h-3.1v5.54c0,.46.05.8.16,1.02.1.22.3.36.58.44s.73.12,1.36.12h2.21c.64,0,1.19-.28,1.64-.84.46-.56.75-1.3.88-2.21,0-.05.05-.07.14-.06Z"/>
    <path class="st0" d="M86.36,195.81c0,.1-.02.14-.05.14l-.77-.02c-.16-.02-.4-.02-.72-.02l-1.51.02c-.22.02-.53.02-.91.02-.05,0-.07-.05-.07-.14s.02-.14.07-.14c.3,0,.52-.02.66-.06.14-.04.2-.12.2-.23,0-.1-.1-.31-.31-.65l-1.9-2.86-1.58,2.28c-.13.19-.24.37-.32.54-.09.17-.13.32-.13.44,0,.35.48.53,1.44.53.05,0,.07.05.07.14s-.02.14-.07.14c-.43,0-.75,0-.96-.02l-1.44-.02-.84.02c-.16.02-.41.02-.74.02-.03,0-.05-.05-.05-.14s.02-.14.05-.14c.4,0,.84-.14,1.31-.42.47-.28.9-.69,1.28-1.24l1.78-2.47-1.9-2.86c-.4-.61-.82-1.04-1.25-1.31-.43-.26-.83-.4-1.2-.4-.03,0-.05-.05-.05-.14s.02-.14.05-.14c.34,0,.58,0,.74.02l.74.02,1.51-.02c.22-.02.53-.02.91-.02.03,0,.05.05.05.14s-.02.14-.05.14c-.3,0-.52.02-.66.06-.14.04-.2.12-.2.23,0,.1.1.31.31.65l1.73,2.62,1.37-2.04c.34-.46.5-.8.5-1.01,0-.18-.11-.3-.34-.38s-.61-.12-1.15-.12c-.03,0-.05-.05-.05-.14s.02-.14.05-.14c.43,0,.76,0,.98.02l1.44.02.84-.02c.16-.02.41-.02.74-.02.03,0,.05.05.05.14s-.02.14-.05.14c-.42,0-.85.13-1.3.4-.45.26-.88.68-1.3,1.26l-1.61,2.18,2.09,3.14c.4.61.82,1.04,1.25,1.31.43.26.83.4,1.2.4.03,0,.05.05.05.14Z"/>
    <path class="st0" d="M96.53,193.92c0,.46.05.8.16,1.02.1.22.3.36.58.44.28.08.72.12,1.33.12h3.07c1.58,0,2.52-1.02,2.81-3.05,0-.05.04-.07.13-.06.09,0,.13.04.13.08-.14,1.26-.22,2.3-.22,3.12,0,.13-.02.22-.07.28-.05.06-.14.08-.29.08h-11.04s-.05-.05-.05-.14.02-.14.05-.14c.62,0,1.08-.04,1.38-.12.3-.08.5-.24.6-.47.1-.23.16-.59.16-1.07v-11.11c0-.48-.05-.83-.16-1.06-.1-.22-.3-.38-.6-.47-.3-.09-.76-.13-1.38-.13-.03,0-.05-.05-.05-.14s.02-.14.05-.14l1.18.02c.67.03,1.2.05,1.58.05.43,0,.98-.02,1.66-.05l1.13-.02s.05.05.05.14-.02.14-.05.14c-.62,0-1.08.04-1.38.13s-.5.25-.6.48c-.1.23-.16.59-.16,1.07v10.99Z"/>
    <path class="st0" d="M106.3,195.81c0-.1.02-.14.05-.14.46,0,.8-.04,1.02-.12.22-.08.36-.24.44-.47.08-.23.12-.59.12-1.07v-4.54c0-.59-.06-1.02-.18-1.27s-.32-.38-.61-.38c-.3,0-.69.12-1.15.36h-.02c-.06,0-.11-.04-.14-.12s-.02-.14.05-.17l2.98-1.39.1-.02s.07.02.11.05c.04.03.06.07.06.12,0,.1,0,.41-.02.95-.02.54-.02,1.16-.02,1.86v4.56c0,.48.04.84.11,1.07.07.23.22.39.43.47.22.08.56.12,1.02.12.05,0,.07.05.07.14s-.02.14-.07.14c-.37,0-.66,0-.86-.02l-1.27-.02-1.25.02c-.22.02-.52.02-.89.02-.03,0-.05-.05-.05-.14ZM107.59,183.33c-.17-.16-.25-.38-.25-.67s.08-.51.25-.67c.17-.16.4-.24.71-.24.29,0,.51.08.67.24.16.16.24.38.24.67s-.08.51-.24.67c-.16.16-.38.24-.67.24-.3,0-.54-.08-.71-.24Z"/>
    <path class="st0" d="M120.94,186.89c.58.34,1.04.84,1.39,1.5.35.66.53,1.48.53,2.44,0,1.15-.25,2.14-.76,2.96s-1.16,1.44-1.98,1.86c-.82.42-1.67.62-2.57.62-1.22,0-2.29-.34-3.22-1.03l-1.75.82h-.05c-.06,0-.1-.03-.12-.08-.02-.06,0-.11.05-.16.54-.38.92-.72,1.13-1.01s.31-.73.31-1.32v-11.9c0-.59-.06-1.02-.18-1.27s-.32-.38-.61-.38c-.27,0-.66.11-1.15.34h-.05s-.08-.04-.11-.12c-.02-.08,0-.13.06-.14l2.88-1.42.12-.02s.07.02.11.05c.04.03.06.07.06.12v9.86c.59-.66,1.21-1.19,1.86-1.6.65-.41,1.36-.61,2.15-.61.69,0,1.32.17,1.9.5ZM120.68,194.72c.56-.73.84-1.77.84-3.13,0-1.44-.3-2.56-.89-3.35s-1.36-1.19-2.3-1.19c-.59,0-1.15.17-1.68.52-.53.34-1.06.81-1.61,1.4v4.03c0,.64.18,1.17.54,1.6.36.42.79.73,1.3.92.5.19,1,.29,1.48.29.99,0,1.77-.36,2.33-1.09Z"/>
    <path class="st0" d="M131.22,186.75c.31.18.47.4.47.64,0,.16-.06.3-.18.43-.12.13-.29.19-.52.19-.16,0-.3-.04-.43-.13s-.21-.14-.24-.16c-.3-.24-.61-.36-.91-.36-.22,0-.46.1-.71.29-.25.19-.63.6-1.14,1.22v5.14c0,.48.06.84.17,1.07.11.23.33.39.66.47s.85.12,1.57.12c.05,0,.07.05.07.14s-.02.14-.07.14c-.51,0-.92,0-1.22-.02l-1.73-.02-1.27.02c-.21.02-.5.02-.86.02-.05,0-.07-.05-.07-.14s.02-.14.07-.14c.46,0,.8-.04,1.01-.12s.35-.24.43-.47c.08-.23.12-.59.12-1.07v-4.8c0-.56-.06-.96-.19-1.2-.13-.24-.35-.36-.67-.36-.26,0-.7.12-1.34.36h-.05c-.06,0-.11-.04-.13-.11-.02-.07,0-.12.06-.16l2.66-1.25s.07-.02.12-.02c.13,0,.27.18.43.54.16.36.24.82.24,1.38v.14c.66-.8,1.18-1.34,1.56-1.63.38-.29.75-.43,1.1-.43s.68.09,1,.28Z"/>
    <path class="st0" d="M133.73,195.81c0-.1.02-.14.05-.14.46,0,.8-.04,1.02-.12.22-.08.36-.24.44-.47.08-.23.12-.59.12-1.07v-4.54c0-.59-.06-1.02-.18-1.27s-.32-.38-.61-.38c-.3,0-.69.12-1.15.36h-.02c-.06,0-.11-.04-.14-.12s-.02-.14.05-.17l2.98-1.39.1-.02s.07.02.11.05c.04.03.06.07.06.12,0,.1,0,.41-.02.95-.02.54-.02,1.16-.02,1.86v4.56c0,.48.04.84.11,1.07.07.23.22.39.43.47s.56.12,1.02.12c.05,0,.07.05.07.14s-.02.14-.07.14c-.37,0-.66,0-.86-.02l-1.27-.02-1.25.02c-.22.02-.52.02-.89.02-.03,0-.05-.05-.05-.14ZM135.02,183.33c-.17-.16-.25-.38-.25-.67s.08-.51.25-.67c.17-.16.4-.24.71-.24.29,0,.51.08.67.24s.24.38.24.67-.08.51-.24.67c-.16.16-.38.24-.67.24-.3,0-.54-.08-.71-.24Z"/>
    <path class="st0" d="M141.87,189.61c.37.33.93.68,1.68,1.04.54.27.98.51,1.3.72.32.21.59.48.82.8.22.33.34.72.34,1.19,0,.8-.3,1.48-.9,2.03-.6.55-1.42.83-2.46.83-.85,0-1.6-.25-2.26-.74-.1-.06-.14-.16-.14-.29l-.05-1.73s.04-.08.13-.08.14.01.16.06c.3.8.69,1.39,1.16,1.76.47.38,1.04.56,1.69.56.54,0,.96-.12,1.25-.36.29-.24.43-.59.43-1.06s-.1-.85-.3-1.16c-.2-.31-.45-.56-.74-.76-.3-.19-.7-.41-1.21-.65-.53-.26-.95-.48-1.26-.68-.31-.2-.58-.47-.79-.8-.22-.34-.32-.75-.32-1.25,0-.85.32-1.5.96-1.97.64-.46,1.39-.7,2.26-.7.59,0,1.16.12,1.7.36.1.05.16.09.18.12.02.03.04.08.04.14,0,.3,0,.54-.02.72l-.02.94s-.05.05-.14.05-.14-.02-.14-.05c0-.51-.26-.94-.79-1.28-.53-.34-1.09-.52-1.68-.52-.43,0-.77.12-1.02.35-.25.23-.37.57-.37,1.02,0,.59.18,1.05.55,1.38Z"/>
  </g>
</svg>