<?xml version="1.0" encoding="UTF-8"?>
<svg id="Calque_1" xmlns="http://www.w3.org/2000/svg" version="1.1" viewBox="0 0 147 159">
  <!-- Generator: Adobe Illustrator 29.8.2, SVG Export Plug-In . SVG Version: 2.1.1 Build 3)  -->
  <defs>
    <style>
      .st0 {
        fill: #fff;
      }
    </style>
  </defs>
  <path class="st0" d="M74.22,20.87c32.53,0,59,26.47,59,59s-26.47,59-59,59S15.22,112.4,15.22,79.87s26.47-59,59-59M74.22,19.87c-33.14,0-60,26.86-60,60s26.86,60,60,60,60-26.86,60-60-26.86-60-60-60h0Z"/>
  <path class="st0" d="M82.81,110.14c0,1.39.16,2.41.47,3.06.31.65.89,1.09,1.73,1.33.84.24,2.17.36,4,.36h9.22c4.75,0,7.56-3.05,8.42-9.14,0-.14.13-.2.4-.18.26.02.4.11.4.25-.43,3.79-.65,6.91-.65,9.36,0,.38-.07.66-.22.83-.14.17-.43.25-.86.25h-33.12c-.1,0-.14-.14-.14-.43s.05-.43.14-.43c1.87,0,3.25-.12,4.14-.36.89-.24,1.49-.71,1.8-1.4.31-.7.47-1.76.47-3.2v-33.34c0-1.44-.16-2.5-.47-3.17-.31-.67-.91-1.14-1.8-1.4-.89-.26-2.27-.4-4.14-.4-.1,0-.14-.14-.14-.43s.05-.43.14-.43l3.53.07c2.02.1,3.6.14,4.75.14,1.3,0,2.95-.05,4.97-.14l3.38-.07c.1,0,.14.14.14.43s-.05.43-.14.43c-1.87,0-3.25.13-4.14.4-.89.26-1.49.75-1.8,1.44-.31.7-.47,1.76-.47,3.2v32.98Z"/>
  <path class="st0" d="M74.16,74.25c.29.02.43.11.43.25-.43,3.02-.65,6.14-.65,9.36,0,.38-.08.66-.25.83-.17.17-.47.25-.9.25h-29.74c-.1,0-.14-.14-.14-.43s.05-.43.14-.43c1.87,0,3.25-.12,4.14-.36.89-.24,1.49-.71,1.8-1.4.31-.7.47-1.76.47-3.2v-33.34c0-1.44-.16-2.5-.47-3.17-.31-.67-.91-1.14-1.8-1.4-.89-.26-2.27-.4-4.14-.4-.1,0-.14-.14-.14-.43s.05-.43.14-.43h28.51c.43,0,.65.22.65.65l.14,8.71c0,.14-.13.22-.4.22s-.4-.07-.4-.22c0-2.45-.65-4.39-1.94-5.83-1.3-1.44-3-2.16-5.11-2.16h-4.97c-1.82,0-3.17.12-4.03.36-.86.24-1.45.7-1.76,1.37-.31.67-.47,1.73-.47,3.17v14.62h9.5c2.21,0,3.74-.37,4.61-1.12.86-.74,1.3-2.03,1.3-3.85,0-.1.14-.14.43-.14s.43.05.43.14l-.07,5.69c0,1.39.02,2.42.07,3.1l.07,3.38c0,.1-.14.14-.43.14s-.43-.05-.43-.14c0-2.16-.46-3.67-1.37-4.54-.91-.86-2.52-1.3-4.82-1.3h-9.29v16.63c0,1.39.16,2.41.47,3.06.31.65.89,1.09,1.73,1.33.84.24,2.2.36,4.07.36h6.62c1.92,0,3.56-.84,4.93-2.52,1.37-1.68,2.24-3.89,2.63-6.62,0-.14.14-.2.43-.18Z"/>
</svg>